%TF.GenerationSoftware,KiCad,Pcbnew,(5.1.8)-1*%
%TF.CreationDate,2021-01-04T22:54:56+11:00*%
%TF.ProjectId,8-14DIPxSMA,382d3134-4449-4507-9853-4d412e6b6963,rev?*%
%TF.SameCoordinates,Original*%
%TF.FileFunction,Legend,Bot*%
%TF.FilePolarity,Positive*%
%FSLAX46Y46*%
G04 Gerber Fmt 4.6, Leading zero omitted, Abs format (unit mm)*
G04 Created by KiCad (PCBNEW (5.1.8)-1) date 2021-01-04 22:54:56*
%MOMM*%
%LPD*%
G01*
G04 APERTURE LIST*
%ADD10C,0.200000*%
G04 APERTURE END LIST*
D10*
X158646333Y-98715580D02*
X157979666Y-99715580D01*
X157979666Y-98715580D02*
X158646333Y-99715580D01*
X157408238Y-98715580D02*
X157217761Y-98715580D01*
X157122523Y-98763200D01*
X157027285Y-98858438D01*
X156979666Y-99048914D01*
X156979666Y-99382247D01*
X157027285Y-99572723D01*
X157122523Y-99667961D01*
X157217761Y-99715580D01*
X157408238Y-99715580D01*
X157503476Y-99667961D01*
X157598714Y-99572723D01*
X157646333Y-99382247D01*
X157646333Y-99048914D01*
X157598714Y-98858438D01*
X157503476Y-98763200D01*
X157408238Y-98715580D01*
X155932047Y-99048914D02*
X155551095Y-99048914D01*
X155789190Y-98715580D02*
X155789190Y-99572723D01*
X155741571Y-99667961D01*
X155646333Y-99715580D01*
X155551095Y-99715580D01*
X155074904Y-99715580D02*
X155170142Y-99667961D01*
X155217761Y-99620342D01*
X155265380Y-99525104D01*
X155265380Y-99239390D01*
X155217761Y-99144152D01*
X155170142Y-99096533D01*
X155074904Y-99048914D01*
X154932047Y-99048914D01*
X154836809Y-99096533D01*
X154789190Y-99144152D01*
X154741571Y-99239390D01*
X154741571Y-99525104D01*
X154789190Y-99620342D01*
X154836809Y-99667961D01*
X154932047Y-99715580D01*
X155074904Y-99715580D01*
X153598714Y-99667961D02*
X153455857Y-99715580D01*
X153217761Y-99715580D01*
X153122523Y-99667961D01*
X153074904Y-99620342D01*
X153027285Y-99525104D01*
X153027285Y-99429866D01*
X153074904Y-99334628D01*
X153122523Y-99287009D01*
X153217761Y-99239390D01*
X153408238Y-99191771D01*
X153503476Y-99144152D01*
X153551095Y-99096533D01*
X153598714Y-99001295D01*
X153598714Y-98906057D01*
X153551095Y-98810819D01*
X153503476Y-98763200D01*
X153408238Y-98715580D01*
X153170142Y-98715580D01*
X153027285Y-98763200D01*
X152598714Y-99715580D02*
X152598714Y-98715580D01*
X152265380Y-99429866D01*
X151932047Y-98715580D01*
X151932047Y-99715580D01*
X151503476Y-99429866D02*
X151027285Y-99429866D01*
X151598714Y-99715580D02*
X151265380Y-98715580D01*
X150932047Y-99715580D01*
X157892380Y-97293180D02*
X157797142Y-97293180D01*
X157701904Y-97340800D01*
X157654285Y-97388419D01*
X157606666Y-97483657D01*
X157559047Y-97674133D01*
X157559047Y-97912228D01*
X157606666Y-98102704D01*
X157654285Y-98197942D01*
X157701904Y-98245561D01*
X157797142Y-98293180D01*
X157892380Y-98293180D01*
X157987619Y-98245561D01*
X158035238Y-98197942D01*
X158082857Y-98102704D01*
X158130476Y-97912228D01*
X158130476Y-97674133D01*
X158082857Y-97483657D01*
X158035238Y-97388419D01*
X157987619Y-97340800D01*
X157892380Y-97293180D01*
X156606666Y-98293180D02*
X157178095Y-98293180D01*
X156892380Y-98293180D02*
X156892380Y-97293180D01*
X156987619Y-97436038D01*
X157082857Y-97531276D01*
X157178095Y-97578895D01*
X155749523Y-97626514D02*
X155749523Y-98293180D01*
X155987619Y-97245561D02*
X156225714Y-97959847D01*
X155606666Y-97959847D01*
X154511428Y-97245561D02*
X155368571Y-98531276D01*
X153987619Y-97293180D02*
X153892380Y-97293180D01*
X153797142Y-97340800D01*
X153749523Y-97388419D01*
X153701904Y-97483657D01*
X153654285Y-97674133D01*
X153654285Y-97912228D01*
X153701904Y-98102704D01*
X153749523Y-98197942D01*
X153797142Y-98245561D01*
X153892380Y-98293180D01*
X153987619Y-98293180D01*
X154082857Y-98245561D01*
X154130476Y-98197942D01*
X154178095Y-98102704D01*
X154225714Y-97912228D01*
X154225714Y-97674133D01*
X154178095Y-97483657D01*
X154130476Y-97388419D01*
X154082857Y-97340800D01*
X153987619Y-97293180D01*
X153035238Y-97293180D02*
X152940000Y-97293180D01*
X152844761Y-97340800D01*
X152797142Y-97388419D01*
X152749523Y-97483657D01*
X152701904Y-97674133D01*
X152701904Y-97912228D01*
X152749523Y-98102704D01*
X152797142Y-98197942D01*
X152844761Y-98245561D01*
X152940000Y-98293180D01*
X153035238Y-98293180D01*
X153130476Y-98245561D01*
X153178095Y-98197942D01*
X153225714Y-98102704D01*
X153273333Y-97912228D01*
X153273333Y-97674133D01*
X153225714Y-97483657D01*
X153178095Y-97388419D01*
X153130476Y-97340800D01*
X153035238Y-97293180D01*
X152130476Y-97721752D02*
X152225714Y-97674133D01*
X152273333Y-97626514D01*
X152320952Y-97531276D01*
X152320952Y-97483657D01*
X152273333Y-97388419D01*
X152225714Y-97340800D01*
X152130476Y-97293180D01*
X151940000Y-97293180D01*
X151844761Y-97340800D01*
X151797142Y-97388419D01*
X151749523Y-97483657D01*
X151749523Y-97531276D01*
X151797142Y-97626514D01*
X151844761Y-97674133D01*
X151940000Y-97721752D01*
X152130476Y-97721752D01*
X152225714Y-97769371D01*
X152273333Y-97816990D01*
X152320952Y-97912228D01*
X152320952Y-98102704D01*
X152273333Y-98197942D01*
X152225714Y-98245561D01*
X152130476Y-98293180D01*
X151940000Y-98293180D01*
X151844761Y-98245561D01*
X151797142Y-98197942D01*
X151749523Y-98102704D01*
X151749523Y-97912228D01*
X151797142Y-97816990D01*
X151844761Y-97769371D01*
X151940000Y-97721752D01*
M02*
